<?xml version="1.0" encoding="utf-8"?>
<!-- Generator: Adobe Illustrator 26.5.0, SVG Export Plug-In . SVG Version: 6.00 Build 0)  -->
<svg version="1.1" id="Layer_1" xmlns="http://www.w3.org/2000/svg" xmlns:xlink="http://www.w3.org/1999/xlink" x="0px" y="0px"
	 viewBox="0 0 301 30" style="enable-background:new 0 0 301 30;" xml:space="preserve">
<style type="text/css">
	.st0{fill:#F26122;}
	.st1{fill:#EA1D25;}
	.st2{fill:#F69E1E;}
	.st3{fill-rule:evenodd;clip-rule:evenodd;fill:#8899A8;}
	.st4{fill:#189BD7;}
	.st5{fill:#242E65;}
	.st6{fill:#253D80;}
	.st7{fill-rule:evenodd;clip-rule:evenodd;fill:#66B643;}
	.st8{fill-rule:evenodd;clip-rule:evenodd;fill:#FFFFFF;}
	.st9{fill:#8899A8;}
	.st10{fill:#3D3F4D;}
	.st11{fill-rule:evenodd;clip-rule:evenodd;fill:#32325D;}
</style>
<path class="st0" d="M292.2,10.5h-5.7v10h5.7V10.5z"/>
<path class="st1" d="M287.1,15.5c0-1.9,0.9-3.8,2.4-5c-2.7-2-6.5-1.7-8.8,0.7c-2.3,2.4-2.3,6.1,0,8.6c2.3,2.4,6.1,2.7,8.8,0.7
	C288,19.2,287.1,17.4,287.1,15.5z"/>
<path class="st2" d="M300,15.5c0,2.4-1.4,4.6-3.7,5.7c-2.2,1.1-4.9,0.8-6.8-0.7c2.8-2.2,3.3-6.1,1.1-8.9c-0.3-0.4-0.7-0.8-1.1-1.1
	c2-1.5,4.6-1.8,6.8-0.7C298.6,10.8,300,13,300,15.5z"/>
<path class="st3" d="M231.1,17.8c0-2-1.6-2.8-2.9-3.5c-0.8-0.4-1.4-0.8-1.4-1.2c0-0.4,0.4-0.9,1.3-1c1-0.1,2.1,0.1,3,0.5l0.5-2.6
	c-0.9-0.3-1.9-0.5-2.9-0.5c-3,0-5.1,1.6-5.1,3.9c0,1.7,1.5,2.7,2.7,3.2c1.2,0.6,1.6,1,1.6,1.5c0,0.8-0.9,1.2-1.8,1.2
	c-1.1,0-2.2-0.3-3.1-0.8l-0.6,2.6c1.1,0.4,2.2,0.6,3.4,0.6c3.2,0,5.3-1.6,5.4-4L231.1,17.8z M222.8,9.8l-2.6,11.8h-3.1l2.6-11.8
	H222.8z M235.7,17.5l1.6-4.4l0.9,4.4H235.7z M242,21.7h-2.9l-0.4-1.8h-3.9l-0.6,1.8H231l4.6-11c0.2-0.5,0.7-0.9,1.3-0.9h2.6
	L242,21.7z M213.5,21.6l5-11.8h-3.3l-3.2,8.1l-1.3-6.9c-0.1-0.7-0.7-1.2-1.4-1.2H204l-0.1,0.3c1,0.2,2.1,0.5,3,1
	c0.4,0.2,0.7,0.6,0.7,1l2.5,9.5H213.5z"/>
<path class="st4" d="M264.8,12.4l0,0.2c-0.5,2.7-2.3,3.6-4.6,3.6h-1.2c-0.3,0-0.5,0.2-0.6,0.5l-0.6,3.8l-0.2,1.1
	c0,0.1,0,0.2,0.1,0.2s0.1,0.1,0.2,0.1h2.1c0.2,0,0.5-0.2,0.5-0.4v-0.1l0.4-2.5v-0.1c0-0.2,0.2-0.4,0.5-0.4h0.3c2,0,3.6-0.8,4-3.2
	c0.2-0.8,0.1-1.7-0.4-2.4C265.2,12.6,265,12.5,264.8,12.4z"/>
<path class="st5" d="M264.3,12.2l-0.2-0.1l-0.3-0.1c-0.3-0.1-0.7-0.1-1-0.1h-3.1c-0.1,0-0.1,0-0.2,0c-0.1,0.1-0.2,0.2-0.3,0.4
	l-0.6,4.2v0.1c0-0.3,0.3-0.5,0.6-0.5h1.2c2.3,0,4.1-0.9,4.6-3.6l0-0.2c-0.1-0.1-0.3-0.1-0.4-0.2L264.3,12.2z"/>
<path class="st6" d="M259.2,12.4c0-0.2,0.1-0.3,0.3-0.4c0.1,0,0.1,0,0.2,0h3.1c0.3,0,0.7,0,1,0.1l0.3,0.1l0.2,0.1l0.1,0
	c0.1,0,0.3,0.1,0.4,0.2c0.2-0.8,0-1.6-0.5-2.3c-0.6-0.7-1.7-1-3-1h-4c-0.3,0-0.5,0.2-0.6,0.5L255.1,20c0,0.1,0,0.2,0.1,0.3
	c0.1,0.1,0.2,0.1,0.3,0.1h2.4l0.6-3.9L259.2,12.4z"/>
<path class="st7" d="M87.6,8.2l-3.8,1.3c-0.8,0.3-1.3,1-1.3,1.8v3.4c0,3.5,3.5,5.6,5,6.3c0.4,0.2,0.9,0.2,1.3,0c1.5-0.7,5-2.9,5-6.3
	v-3.4c0-0.8-0.5-1.5-1.3-1.8l-3.8-1.3C88.4,8.1,87.9,8.1,87.6,8.2z"/>
<path class="st8" d="M90.5,13c0.2,0.2,0.2,0.6,0,0.9L88.3,16c-0.4,0.4-1.2,0.4-1.6,0l-0.9-0.9c-0.2-0.2-0.2-0.6,0-0.9
	c0.2-0.2,0.7-0.2,0.9,0l0.8,0.8l2.1-2.1C89.9,12.7,90.3,12.7,90.5,13z"/>
<path class="st9" d="M103.3,19.7c-0.6,0-1.1-0.1-1.6-0.3c-0.4-0.2-0.7-0.5-1-0.8c-0.2-0.3-0.3-0.7-0.3-1.2h0.8
	c0,0.3,0.1,0.5,0.2,0.8c0.1,0.2,0.4,0.4,0.7,0.6c0.3,0.1,0.7,0.2,1.2,0.2c0.7,0,1.2-0.1,1.5-0.4c0.3-0.3,0.5-0.7,0.5-1.1
	c0-0.4-0.1-0.7-0.4-0.9c-0.3-0.2-0.7-0.4-1.2-0.4l-0.8-0.1c-0.6-0.1-1.1-0.2-1.5-0.6c-0.4-0.3-0.6-0.8-0.6-1.3
	c0-0.4,0.1-0.8,0.3-1.1c0.2-0.3,0.5-0.6,0.9-0.8c0.4-0.2,0.8-0.3,1.3-0.3c0.5,0,1,0.1,1.4,0.3c0.4,0.2,0.7,0.4,0.9,0.8
	c0.2,0.3,0.3,0.7,0.3,1.2h-0.8c0-0.3-0.1-0.5-0.2-0.8c-0.1-0.2-0.3-0.4-0.6-0.6c-0.3-0.1-0.6-0.2-1-0.2c-0.4,0-0.7,0.1-1,0.2
	c-0.3,0.1-0.4,0.3-0.6,0.5c-0.1,0.2-0.2,0.5-0.2,0.7c0,0.3,0.1,0.6,0.3,0.8c0.2,0.2,0.6,0.3,1,0.4l0.8,0.1c0.7,0.1,1.3,0.3,1.7,0.6
	c0.4,0.4,0.6,0.8,0.6,1.4c0,0.4-0.1,0.8-0.4,1.1c-0.2,0.3-0.6,0.6-1,0.8C104.4,19.6,103.9,19.7,103.3,19.7z"/>
<path class="st9" d="M110,19.7c-0.5,0-0.9-0.1-1.2-0.2c-0.3-0.2-0.6-0.4-0.8-0.6c-0.2-0.3-0.4-0.6-0.5-0.9c-0.1-0.3-0.2-0.7-0.2-1
	v-0.1c0-0.3,0.1-0.7,0.2-1c0.1-0.3,0.3-0.6,0.5-0.9c0.2-0.3,0.5-0.5,0.8-0.6c0.3-0.2,0.7-0.2,1.1-0.2c0.6,0,1,0.1,1.4,0.4
	c0.4,0.2,0.7,0.6,0.8,1c0.2,0.4,0.3,0.8,0.3,1.2V17h-4.4c0,0.4,0.1,0.7,0.2,1c0.1,0.3,0.4,0.6,0.6,0.7c0.3,0.2,0.6,0.3,1.1,0.3
	c0.5,0,0.8-0.1,1.1-0.3c0.3-0.2,0.5-0.5,0.5-0.8h0.7c-0.1,0.5-0.4,1-0.8,1.3C111.2,19.6,110.6,19.7,110,19.7z M110,14.7
	c-0.5,0-1,0.2-1.3,0.5c-0.3,0.3-0.5,0.7-0.6,1.2h3.6c0-0.5-0.2-0.9-0.5-1.2C110.9,14.9,110.5,14.7,110,14.7z"/>
<path class="st9" d="M116.2,19.7c-0.4,0-0.8-0.1-1.2-0.2c-0.3-0.2-0.6-0.4-0.8-0.6c-0.2-0.3-0.4-0.6-0.5-0.9c-0.1-0.3-0.2-0.7-0.2-1
	v-0.1c0-0.3,0.1-0.7,0.2-1c0.1-0.3,0.3-0.6,0.5-0.9c0.2-0.3,0.5-0.5,0.8-0.6c0.3-0.2,0.7-0.2,1.2-0.2s0.8,0.1,1.2,0.2
	c0.3,0.2,0.6,0.4,0.8,0.7c0.2,0.3,0.3,0.6,0.4,1h-0.7c-0.1-0.4-0.2-0.7-0.5-0.9c-0.3-0.2-0.7-0.4-1.2-0.4c-0.4,0-0.8,0.1-1.1,0.3
	c-0.3,0.2-0.5,0.4-0.6,0.8c-0.1,0.3-0.2,0.7-0.2,1.1s0.1,0.8,0.2,1.1c0.1,0.3,0.4,0.6,0.6,0.8c0.3,0.2,0.6,0.3,1.1,0.3
	c0.5,0,0.9-0.1,1.2-0.4c0.3-0.3,0.5-0.6,0.5-0.9h0.7c0,0.4-0.2,0.8-0.4,1.1c-0.2,0.3-0.5,0.5-0.9,0.7
	C117,19.6,116.6,19.7,116.2,19.7z"/>
<path class="st9" d="M121.8,19.7c-0.6,0-1.1-0.2-1.5-0.6c-0.3-0.4-0.5-1-0.5-1.7v-3.1h0.7v3.3c0,0.5,0.1,0.8,0.4,1.1
	c0.2,0.3,0.6,0.4,1,0.4c0.5,0,0.8-0.1,1.1-0.4c0.3-0.3,0.4-0.7,0.4-1.2v-3.2h0.8v5.3h-0.6v-1.2c-0.1,0.4-0.3,0.8-0.6,1
	C122.7,19.6,122.4,19.7,121.8,19.7L121.8,19.7z"/>
<path class="st9" d="M126.2,19.5v-5.3h0.6v1.5c0.2-1,0.9-1.5,2.1-1.5h0.2v0.7h-0.3c-0.6,0-1,0.2-1.3,0.5c-0.3,0.3-0.5,0.7-0.5,1.3
	v2.9H126.2z"/>
<path class="st9" d="M132.5,19.7c-0.5,0-0.9-0.1-1.2-0.2c-0.3-0.2-0.6-0.4-0.8-0.6c-0.2-0.3-0.4-0.6-0.5-0.9c-0.1-0.3-0.2-0.7-0.2-1
	v-0.1c0-0.3,0.1-0.7,0.2-1c0.1-0.3,0.3-0.6,0.5-0.9c0.2-0.3,0.5-0.5,0.8-0.6c0.3-0.2,0.7-0.2,1.1-0.2c0.6,0,1,0.1,1.4,0.4
	c0.4,0.2,0.7,0.6,0.8,1c0.2,0.4,0.3,0.8,0.3,1.2V17h-4.4c0,0.4,0.1,0.7,0.2,1c0.1,0.3,0.4,0.6,0.6,0.7c0.3,0.2,0.6,0.3,1.1,0.3
	c0.5,0,0.8-0.1,1.1-0.3c0.3-0.2,0.5-0.5,0.5-0.8h0.7c-0.1,0.5-0.4,1-0.8,1.3C133.6,19.6,133.1,19.7,132.5,19.7z M132.4,14.7
	c-0.5,0-1,0.2-1.3,0.5c-0.3,0.3-0.5,0.7-0.6,1.2h3.6c0-0.5-0.2-0.9-0.5-1.2S132.9,14.7,132.4,14.7z"/>
<path class="st9" d="M138.9,19.5v-7.4h2.1c0.6,0,1.1,0.1,1.5,0.3c0.4,0.2,0.7,0.5,0.9,0.8c0.2,0.3,0.3,0.7,0.3,1.2v0.1
	c0,0.4-0.1,0.8-0.3,1.2c-0.2,0.3-0.5,0.6-0.9,0.8c-0.4,0.2-0.9,0.3-1.5,0.3h-1.4v2.7H138.9z M141.2,12.8h-1.5v3.3h1.5
	c0.4,0,0.7-0.1,1-0.2s0.4-0.3,0.6-0.6c0.1-0.3,0.2-0.5,0.2-0.8c0-0.5-0.1-0.9-0.4-1.2C142.2,13,141.7,12.8,141.2,12.8z"/>
<path class="st9" d="M146.4,19.7c-0.6,0-1-0.1-1.4-0.4c-0.3-0.3-0.5-0.7-0.5-1.3c0-0.5,0.2-0.9,0.5-1.2c0.4-0.3,0.9-0.4,1.5-0.4h1.5
	V16c0-0.4-0.1-0.7-0.3-0.9c-0.2-0.2-0.5-0.3-1-0.3c-0.3,0-0.6,0-0.9,0c-0.3,0-0.6,0-0.8,0.1v-0.7c0.2,0,0.4,0,0.7-0.1
	c0.2,0,0.5,0,0.7,0c0.8,0,1.4,0.2,1.7,0.5c0.4,0.3,0.5,0.8,0.5,1.5v3.4h-0.6v-1.1c-0.1,0.4-0.3,0.7-0.7,0.9
	C147.3,19.6,146.9,19.7,146.4,19.7z M146.6,19.1c0.2,0,0.5,0,0.7-0.1c0.2-0.1,0.4-0.2,0.6-0.5c0.2-0.2,0.2-0.5,0.3-0.9v-0.7h-1.5
	c-0.4,0-0.7,0.1-1,0.3c-0.2,0.2-0.3,0.5-0.3,0.8c0,0.3,0.1,0.6,0.4,0.8C145.8,19,146.2,19.1,146.6,19.1z"/>
<path class="st9" d="M150.2,21.6v-0.7h0.7c0.3,0,0.6-0.1,0.8-0.2c0.2-0.1,0.4-0.4,0.5-0.8l0.2-0.6h-0.5l-1.9-5.2h0.8l1.6,4.6h0.3
	l1.4-4.6h0.7l-1.9,6c-0.2,0.5-0.4,0.9-0.8,1.1c-0.3,0.2-0.8,0.3-1.3,0.3H150.2z"/>
<path class="st9" d="M156.1,19.5v-5.3h0.6v1.2c0.1-0.4,0.3-0.8,0.6-1c0.3-0.2,0.7-0.4,1.1-0.4h0c0.5,0,0.8,0.1,1.1,0.4
	c0.3,0.2,0.5,0.6,0.6,1c0.1-0.4,0.3-0.8,0.6-1c0.3-0.2,0.7-0.4,1.1-0.4h0c0.6,0,1.1,0.2,1.4,0.6c0.3,0.4,0.5,1,0.5,1.8v3.1h-0.8
	v-3.3c0-0.5-0.1-0.8-0.3-1.1c-0.2-0.3-0.6-0.4-1-0.4c-0.4,0-0.8,0.1-1.1,0.4c-0.3,0.3-0.4,0.7-0.4,1.1v3.2h-0.8v-3.3
	c0-0.5-0.1-0.8-0.3-1.1c-0.2-0.3-0.6-0.4-1-0.4c-0.4,0-0.8,0.1-1.1,0.4c-0.3,0.3-0.4,0.7-0.4,1.1v3.2H156.1z"/>
<path class="st9" d="M168,19.7c-0.5,0-0.9-0.1-1.2-0.2c-0.3-0.2-0.6-0.4-0.8-0.6c-0.2-0.3-0.4-0.6-0.5-0.9c-0.1-0.3-0.2-0.7-0.2-1
	v-0.1c0-0.3,0.1-0.7,0.2-1c0.1-0.3,0.3-0.6,0.5-0.9c0.2-0.3,0.5-0.5,0.8-0.6c0.3-0.2,0.7-0.2,1.1-0.2c0.6,0,1,0.1,1.4,0.4
	c0.4,0.2,0.7,0.6,0.8,1c0.2,0.4,0.3,0.8,0.3,1.2V17h-4.4c0,0.4,0.1,0.7,0.2,1c0.1,0.3,0.4,0.6,0.6,0.7c0.3,0.2,0.6,0.3,1.1,0.3
	c0.5,0,0.8-0.1,1.1-0.3c0.3-0.2,0.5-0.5,0.5-0.8h0.7c-0.1,0.5-0.4,1-0.8,1.3C169.1,19.6,168.6,19.7,168,19.7z M167.9,14.7
	c-0.5,0-1,0.2-1.3,0.5c-0.3,0.3-0.5,0.7-0.6,1.2h3.6c0-0.5-0.2-0.9-0.5-1.2C168.9,14.9,168.5,14.7,167.9,14.7z"/>
<path class="st9" d="M171.9,19.5v-5.3h0.6v1.2c0.1-0.4,0.3-0.8,0.6-1c0.3-0.2,0.7-0.4,1.2-0.4h0c0.7,0,1.2,0.2,1.5,0.6
	c0.3,0.4,0.5,1,0.5,1.8v3.1h-0.7v-3.3c0-0.5-0.1-0.8-0.4-1.1c-0.3-0.3-0.6-0.4-1.1-0.4c-0.5,0-0.8,0.1-1.1,0.4
	c-0.3,0.3-0.4,0.7-0.4,1.1v3.2H171.9z"/>
<path class="st9" d="M180.2,19.6c-0.4,0-0.7-0.1-1-0.2c-0.3-0.1-0.5-0.3-0.6-0.5c-0.1-0.3-0.2-0.6-0.2-1v-3.1h-1v-0.6h1v-1.7h0.7
	v1.7h1.9v0.6h-1.9V18c0,0.3,0.1,0.5,0.3,0.7s0.4,0.3,0.7,0.3h1v0.7H180.2z"/>
<rect x="192" y="4.2" class="st10" width="1" height="22"/>
<g id="g32" transform="translate(-54 -36)">
	<path id="path18" class="st11" d="M122.1,51.7c0-4.5-2.2-8-6.3-8c-4.2,0-6.7,3.5-6.7,8c0,5.3,3,8,7.3,8c2.1,0,3.7-0.5,4.9-1.1V55
		c-1.2,0.6-2.6,1-4.3,1c-1.7,0-3.2-0.6-3.4-2.7h8.6C122,53,122.1,52.1,122.1,51.7z M113.4,50c0-2,1.2-2.8,2.3-2.8
		c1.1,0,2.2,0.8,2.2,2.8H113.4z"/>
	<path id="path20" class="st11" d="M102.3,43.7c-1.7,0-2.8,0.8-3.4,1.4l-0.2-1.1h-3.9v20.5l4.4-0.9l0-5c0.6,0.5,1.6,1.1,3.1,1.1
		c3.1,0,6-2.5,6-8.1C108.2,46.4,105.3,43.7,102.3,43.7L102.3,43.7z M101.2,55.7c-1,0-1.7-0.4-2.1-0.8l0-6.5c0.5-0.5,1.1-0.9,2.1-0.9
		c1.6,0,2.7,1.8,2.7,4.1C103.9,54,102.8,55.7,101.2,55.7z"/>
	<path id="polygon22" class="st11" d="M93.1,38.1L88.7,39v3.6l4.4-0.9V38.1z"/>
	<path id="rect24" class="st11" d="M88.7,43.9h4.4v15.4h-4.4V43.9z"/>
	<path id="path26" class="st11" d="M84,45.2l-0.3-1.3h-3.8v15.4h4.4V48.9c1-1.4,2.8-1.1,3.3-0.9v-4C87,43.7,85,43.4,84,45.2L84,45.2
		z"/>
	<path id="path28" class="st11" d="M75.2,40.1l-4.3,0.9l0,14.1c0,2.6,1.9,4.5,4.5,4.5c1.4,0,2.5-0.3,3.1-0.6v-3.6
		c-0.6,0.2-3.3,1-3.3-1.6v-6.2h3.3v-3.7h-3.3L75.2,40.1z"/>
	<path id="path30" class="st11" d="M63.3,48.4c0-0.7,0.6-0.9,1.5-0.9c1.3,0,3,0.4,4.4,1.1v-4.1c-1.5-0.6-2.9-0.8-4.4-0.8
		c-3.6,0-5.9,1.9-5.9,5c0,4.8,6.7,4.1,6.7,6.2c0,0.8-0.7,1.1-1.7,1.1c-1.5,0-3.3-0.6-4.8-1.4v4.2c1.6,0.7,3.3,1,4.8,1
		c3.7,0,6.2-1.8,6.2-5C70,49.4,63.3,50.4,63.3,48.4L63.3,48.4z"/>
</g>
</svg>
